<?xml version="1.0" encoding="UTF-8"?>
<!DOCTYPE svg PUBLIC "-//W3C//DTD SVG 1.1//EN" "http://www.w3.org/Graphics/SVG/1.1/DTD/svg11.dtd">
<!-- Creator: CorelDRAW -->
<svg xmlns="http://www.w3.org/2000/svg" xml:space="preserve" width="6.82666in" height="6.82666in" style="shape-rendering:geometricPrecision; text-rendering:geometricPrecision; image-rendering:optimizeQuality; fill-rule:evenodd; clip-rule:evenodd"
viewBox="0 0 6.82666 6.82666"
 xmlns:xlink="http://www.w3.org/1999/xlink">
 <defs>
  <style type="text/css">
   <![CDATA[
    .fil1 {fill:none}
    .fil0 {fill:black;fill-rule:nonzero}
   ]]>
  </style>
 </defs>
 <g id="Layer_x0020_1">
  <metadata id="CorelCorpID_0Corel-Layer"/>
  <g id="_350293592">
   <polygon id="_350304416" class="fil0" points="3.46667,1.90031 3.46667,5.92 3.36,5.92 3.36,1.90031 "/>
   <path id="_350289848" class="fil0" d="M3.44562 0.86437c0.0719882,0.0551575 0.148606,0.17128 0.20411,0.30752 0.0495433,0.12161 0.0835236,0.261134 0.0835236,0.38913 0,0.13063 -0.0298937,0.222957 -0.0790709,0.285543 -0.0603228,0.0767717 -0.146142,0.107083 -0.240854,0.107083 -0.0947126,0 -0.180531,-0.030311 -0.240854,-0.107083 -0.0491772,-0.0625866 -0.0790709,-0.154913 -0.0790709,-0.285543 0,-0.130303 0.0295866,-0.262756 0.0777165,-0.380906 0.0513583,-0.126067 0.124575,-0.236882 0.206169,-0.312409l0.0329173 -0.0304685 0.0354134 0.0271339zm0.105362 0.34752c-0.0392795,-0.0964173 -0.0883543,-0.179634 -0.135957,-0.231323 -0.0563425,0.0626378 -0.107,0.145882 -0.145157,0.239547 -0.0432244,0.106106 -0.0697953,0.224689 -0.0697953,0.340906 0,0.104728 0.0212283,0.175264 0.0561496,0.219709 0.0373189,0.0474961 0.0936181,0.066248 0.157106,0.066248 0.0634882,0 0.119787,-0.018752 0.157106,-0.066248 0.0349213,-0.0444449 0.0561496,-0.11498 0.0561496,-0.219709 0,-0.113701 -0.0307559,-0.239051 -0.0756024,-0.34913z"/>
   <g>
    <path id="_350291888" class="fil0" d="M4.23879 1.7867c0.0136693,0.0892087 -0.011563,0.225886 -0.065937,0.362783 -0.0484961,0.122106 -0.120626,0.246343 -0.209252,0.338669l-2.3622e-005 2.75591e-005c-0.0981772,0.102268 -0.190433,0.147646 -0.274638,0.15335 -0.0881969,0.00598031 -0.16435,-0.0308031 -0.227843,-0.091748l-0.000834646 -0.000625984 -3.93701e-006 -3.93701e-006 9.44882e-005 -9.44882e-005c-0.0629449,-0.0607126 -0.102425,-0.134984 -0.100063,-0.222988 0.00226772,-0.0845157 0.0438346,-0.178634 0.141988,-0.280882 0.0902323,-0.0939961 0.203283,-0.169059 0.319807,-0.220949 0.124547,-0.0554646 0.254016,-0.0847559 0.364831,-0.082748l0.0450709 0.000818898 0.00680315 0.0443898zm-0.164685 0.323618c0.0383622,-0.0965827 0.0605157,-0.190642 0.0619291,-0.261146 -0.0842283,0.00616142 -0.178417,0.0310866 -0.270618,0.0721457 -0.104685,0.0466181 -0.205984,0.11378 -0.286469,0.197618 -0.0779567,0.0812087 -0.110827,0.150815 -0.112406,0.20963 -0.00147638,0.0549685 0.0254685,0.103429 0.0682992,0.144543l0.000834646 0.000625984 3.93701e-006 3.93701e-006 -8.66142e-005 8.66142e-005c0.0425551,0.0405827 0.0917323,0.0651496 0.14626,0.0614528 0.0588386,-0.00398425 0.127122,-0.0396693 0.205043,-0.120831l1.9685e-005 -2.75591e-005c0.0787402,-0.0820236 0.143343,-0.193705 0.187189,-0.304102z"/>
    <path id="_350297288" class="fil0" d="M2.69063 1.84918c0.00141339,0.0705039 0.0235669,0.164563 0.0619291,0.261146 0.0438465,0.110398 0.108449,0.222079 0.187189,0.304102l1.9685e-005 2.75591e-005c0.0779213,0.0811614 0.146205,0.116846 0.205043,0.120831 0.0545276,0.00369685 0.103705,-0.0208701 0.14626,-0.0614528l-8.66142e-005 -8.66142e-005 3.93701e-006 -3.93701e-006 0.000834646 -0.000625984c0.0428307,-0.0411142 0.0697756,-0.0895748 0.0682992,-0.144543 -0.00157874,-0.058815 -0.0344488,-0.128421 -0.112406,-0.20963 -0.0804843,-0.0838386 -0.181783,-0.151 -0.286469,-0.197618 -0.0922008,-0.0410591 -0.18639,-0.0659843 -0.270618,-0.0721457zm-0.0368189 0.300311c-0.054374,-0.136898 -0.0796063,-0.273575 -0.065937,-0.362783l0.00680315 -0.0443898 0.0450709 -0.000818898c0.110815,-0.00200787 0.240283,0.0272835 0.364831,0.082748 0.116524,0.0518898 0.229575,0.126953 0.319807,0.220949 0.0981535,0.102248 0.13972,0.196366 0.141988,0.280882 0.0023622,0.0880039 -0.0371181,0.162276 -0.100063,0.222988l9.44882e-005 9.44882e-005 -3.93701e-006 3.93701e-006 -0.000834646 0.000625984c-0.0634921,0.0609449 -0.139646,0.0977283 -0.227843,0.091748 -0.0842047,-0.00570472 -0.176461,-0.0510827 -0.274638,-0.15335l-2.3622e-005 -2.75591e-005c-0.088626,-0.0923268 -0.160756,-0.216563 -0.209252,-0.338669z"/>
   </g>
   <g>
    <path id="_350303624" class="fil0" d="M4.23879 2.57904c0.0136693,0.0892047 -0.011563,0.225882 -0.065937,0.36278 -0.0485,0.122114 -0.120634,0.246354 -0.209268,0.338685 -0.0904803,0.0942598 -0.175976,0.140169 -0.254764,0.15126 -0.0965,0.0135866 -0.179362,-0.0240157 -0.247728,-0.0896457 -0.063378,-0.0608425 -0.103173,-0.135358 -0.100803,-0.223713 0.00226772,-0.0845118 0.0438346,-0.178634 0.141988,-0.280882 0.0902323,-0.094 0.203287,-0.169059 0.319807,-0.220949 0.124547,-0.0554646 0.254012,-0.0847559 0.364831,-0.0827441l0.0450709 0.000822835 0.00680315 0.0443858zm-0.164685 0.323614c0.0383622,-0.0965827 0.0605197,-0.190642 0.0619291,-0.261146 -0.0842283,0.00616142 -0.178421,0.0310866 -0.270618,0.0721457 -0.104681,0.0466181 -0.205984,0.113776 -0.286469,0.197618 -0.0779567,0.0812087 -0.110827,0.150819 -0.112406,0.20963 -0.00147638,0.0549724 0.0254685,0.103433 0.0682992,0.144547 0.045752,0.0439213 0.0994016,0.0693465 0.159398,0.0608976 0.056,-0.00788189 0.120173,-0.0440591 0.192677,-0.119591 0.0787402,-0.0820236 0.143343,-0.193705 0.187189,-0.304102z"/>
    <path id="_350289992" class="fil0" d="M2.69063 2.64151c0.00140945,0.0705039 0.0235669,0.164563 0.0619291,0.261146 0.0438465,0.110398 0.108449,0.222079 0.187189,0.304102 0.0725039,0.0755315 0.136677,0.111709 0.192677,0.119591 0.0599961,0.00844882 0.113646,-0.0169764 0.159398,-0.0608976 0.0428307,-0.0411142 0.0697756,-0.0895748 0.0682992,-0.144547 -0.00157874,-0.058811 -0.0344488,-0.128421 -0.112406,-0.20963 -0.0804843,-0.0838425 -0.181787,-0.151 -0.286469,-0.197618 -0.0921969,-0.0410591 -0.18639,-0.0659843 -0.270618,-0.0721457zm-0.0368189 0.300311c-0.054374,-0.136898 -0.0796063,-0.273575 -0.065937,-0.36278l0.00680315 -0.0443858 0.0450709 -0.000822835c0.110819,-0.00201181 0.240283,0.0272795 0.364831,0.0827441 0.11652,0.0518898 0.229575,0.126949 0.319807,0.220949 0.0981535,0.102248 0.13972,0.19637 0.141988,0.280882 0.00237008,0.0883543 -0.0374252,0.16287 -0.100803,0.223713 -0.0683661,0.0656299 -0.151228,0.103232 -0.247728,0.0896457 -0.0787874,-0.0110906 -0.164283,-0.057 -0.254764,-0.15126 -0.0886339,-0.0923307 -0.160768,-0.216571 -0.209268,-0.338685z"/>
   </g>
   <g>
    <path id="_350299760" class="fil0" d="M4.23879 3.37138c0.0136654,0.0892008 -0.011563,0.225886 -0.065937,0.362783 -0.0485039,0.122114 -0.120638,0.24635 -0.209268,0.338681 -0.0904803,0.0942598 -0.175976,0.140169 -0.254764,0.15126 -0.0965,0.0135866 -0.179362,-0.0240157 -0.247728,-0.0896457 -0.063378,-0.0608425 -0.103173,-0.135358 -0.100803,-0.223713 0.00226772,-0.0845118 0.0438346,-0.178634 0.141988,-0.280882 0.0902323,-0.0939961 0.203283,-0.169059 0.319807,-0.220945 0.124547,-0.0554646 0.254016,-0.0847559 0.364831,-0.082748l0.0450709 0.000818898 0.00680315 0.0443898zm-0.164685 0.323618c0.0383622,-0.0965827 0.0605157,-0.190642 0.0619291,-0.261146 -0.0842283,0.00616142 -0.178417,0.0310866 -0.270618,0.0721457 -0.104681,0.0466142 -0.205984,0.113776 -0.286469,0.197614 -0.0779567,0.0812087 -0.110827,0.150819 -0.112406,0.20963 -0.00147638,0.0549724 0.0254685,0.103433 0.0682992,0.144547 0.045752,0.0439213 0.0994016,0.0693465 0.159398,0.0608976 0.056,-0.00788189 0.120173,-0.0440591 0.192677,-0.119591 0.0787402,-0.0820236 0.143339,-0.193705 0.187189,-0.304098z"/>
    <path id="_350290568" class="fil0" d="M2.69063 3.43385c0.00141339,0.0705039 0.0235669,0.164563 0.0619291,0.261146 0.0438504,0.110394 0.108449,0.222075 0.187189,0.304098 0.0725039,0.0755315 0.136677,0.111709 0.192677,0.119591 0.0599961,0.00844882 0.113646,-0.0169764 0.159398,-0.0608976 0.0428307,-0.0411142 0.0697756,-0.0895748 0.0682992,-0.144547 -0.00157874,-0.058811 -0.0344488,-0.128421 -0.112406,-0.20963 -0.0804843,-0.0838386 -0.181787,-0.151 -0.286469,-0.197614 -0.0922008,-0.0410591 -0.18639,-0.0659843 -0.270618,-0.0721457zm-0.0368189 0.300311c-0.054374,-0.136898 -0.0796024,-0.273583 -0.065937,-0.362783l0.00680315 -0.0443898 0.0450709 -0.000818898c0.110815,-0.00200787 0.240283,0.0272835 0.364831,0.082748 0.116524,0.0518858 0.229575,0.126949 0.319807,0.220945 0.0981535,0.102248 0.13972,0.19637 0.141988,0.280882 0.00237008,0.0883543 -0.0374252,0.16287 -0.100803,0.223713 -0.0683661,0.0656299 -0.151228,0.103232 -0.247728,0.0896457 -0.0787874,-0.0110906 -0.164283,-0.057 -0.254764,-0.15126 -0.0886299,-0.0923307 -0.160764,-0.216567 -0.209268,-0.338681z"/>
   </g>
   <g>
    <path id="_350298080" class="fil0" d="M4.23879 4.16371c0.0136654,0.0892008 -0.011563,0.225886 -0.065937,0.362783 -0.0485039,0.122114 -0.120634,0.246354 -0.209268,0.338685 -0.0904803,0.0942598 -0.175976,0.140169 -0.254764,0.15126 -0.0965039,0.0135827 -0.179362,-0.0240197 -0.247728,-0.0896496l-0.000834646 -0.000625984 -3.93701e-006 -3.93701e-006 9.44882e-005 -9.44882e-005c-0.0629449,-0.0607126 -0.102421,-0.134984 -0.100059,-0.222988 0.00226378,-0.0845118 0.0438268,-0.17863 0.14198,-0.28087l0.000625984 -0.000834646 7.87402e-006 -7.87402e-006 9.05512e-005 9.05512e-005c0.0901142,-0.0936496 0.202874,-0.168449 0.319091,-0.220205 0.124547,-0.0554646 0.254016,-0.0847559 0.364831,-0.082748l0.0450709 0.000814961 0.00680315 0.0443937zm-0.164685 0.323618c0.0383622,-0.0965827 0.0605157,-0.190642 0.0619291,-0.261146 -0.0842283,0.00616142 -0.178417,0.0310866 -0.270618,0.0721457 -0.104685,0.0466181 -0.205984,0.11378 -0.286469,0.197618l-0.000625984 0.000834646 -7.87402e-006 7.87402e-006 -8.66142e-005 -8.66142e-005c-0.077437,0.080878 -0.110114,0.150236 -0.111685,0.20887 -0.00147638,0.0549685 0.0254646,0.103429 0.0682953,0.144543l0.000834646 0.000625984 3.93701e-006 3.93701e-006 -8.66142e-005 8.66142e-005c0.0455906,0.0434803 0.0989764,0.0685866 0.15865,0.060189 0.056,-0.00788189 0.120173,-0.0440591 0.192677,-0.119591 0.0787402,-0.0820236 0.143339,-0.193709 0.187189,-0.304102z"/>
    <path id="_350302112" class="fil0" d="M2.69063 4.22619c0.00141339,0.0705039 0.0235669,0.164563 0.0619291,0.261146 0.0438504,0.110394 0.108449,0.222079 0.187189,0.304102 0.0725039,0.0755315 0.136677,0.111709 0.192677,0.119591 0.0596732,0.00839764 0.113059,-0.0167087 0.15865,-0.060189l-8.66142e-005 -8.66142e-005 3.93701e-006 -3.93701e-006 0.000834646 -0.000625984c0.0428307,-0.0411142 0.0697717,-0.0895748 0.0682953,-0.144543 -0.00157087,-0.0586339 -0.034248,-0.127992 -0.111685,-0.20887l-8.66142e-005 8.66142e-005 -7.87402e-006 -7.87402e-006 -0.000625984 -0.000834646c-0.0804843,-0.0838386 -0.181783,-0.151 -0.286469,-0.197618 -0.0922008,-0.0410591 -0.18639,-0.0659843 -0.270618,-0.0721457zm-0.0368189 0.300311c-0.054374,-0.136898 -0.0796024,-0.273583 -0.065937,-0.362783l0.00680315 -0.0443937 0.0450709 -0.000814961c0.110815,-0.00200787 0.240283,0.0272835 0.364831,0.082748 0.116217,0.0517559 0.228976,0.126555 0.319091,0.220205l9.05512e-005 -9.05512e-005 7.87402e-006 7.87402e-006 0.000625984 0.000834646c0.0981535,0.10224 0.139717,0.196358 0.14198,0.28087 0.0023622,0.0880039 -0.0371142,0.162276 -0.100059,0.222988l9.44882e-005 9.44882e-005 -3.93701e-006 3.93701e-006 -0.000834646 0.000625984c-0.0683661,0.0656299 -0.151224,0.103232 -0.247728,0.0896496 -0.0787874,-0.0110906 -0.164283,-0.057 -0.254764,-0.15126 -0.0886339,-0.0923307 -0.160764,-0.216571 -0.209268,-0.338685z"/>
   </g>
  </g>
 </g>
 <rect class="fil1" width="6.82666" height="6.82666"/>
</svg>
